<svg width="568" height="63" viewBox="0 0 568 63" fill="none" xmlns="http://www.w3.org/2000/svg">
<path d="M26.888 54L15.8 34.416H11.048V54H0.968V3.744H19.832C23.72 3.744 27.032 4.44 29.768 5.832C32.504 7.176 34.544 9.024 35.888 11.376C37.28 13.68 37.976 16.272 37.976 19.152C37.976 22.464 37.016 25.464 35.096 28.152C33.176 30.792 30.32 32.616 26.528 33.624L38.552 54H26.888ZM11.048 26.856H19.472C22.208 26.856 24.248 26.208 25.592 24.912C26.936 23.568 27.608 21.72 27.608 19.368C27.608 17.064 26.936 15.288 25.592 14.04C24.248 12.744 22.208 12.096 19.472 12.096H11.048V26.856ZM44.501 33.912C44.501 29.88 45.293 26.304 46.877 23.184C48.509 20.064 50.693 17.664 53.429 15.984C56.213 14.304 59.309 13.464 62.717 13.464C65.693 13.464 68.285 14.064 70.493 15.264C72.749 16.464 74.549 17.976 75.893 19.8V14.112H86.045V54H75.893V48.168C74.597 50.04 72.797 51.6 70.493 52.848C68.237 54.048 65.621 54.648 62.645 54.648C59.285 54.648 56.213 53.784 53.429 52.056C50.693 50.328 48.509 47.904 46.877 44.784C45.293 41.616 44.501 37.992 44.501 33.912ZM75.893 34.056C75.893 31.608 75.413 29.52 74.453 27.792C73.493 26.016 72.197 24.672 70.565 23.76C68.933 22.8 67.181 22.32 65.309 22.32C63.437 22.32 61.709 22.776 60.125 23.688C58.541 24.6 57.245 25.944 56.237 27.72C55.277 29.448 54.797 31.512 54.797 33.912C54.797 36.312 55.277 38.424 56.237 40.248C57.245 42.024 58.541 43.392 60.125 44.352C61.757 45.312 63.485 45.792 65.309 45.792C67.181 45.792 68.933 45.336 70.565 44.424C72.197 43.464 73.493 42.12 74.453 40.392C75.413 38.616 75.893 36.504 75.893 34.056ZM117.994 13.536C122.746 13.536 126.586 15.048 129.514 18.072C132.442 21.048 133.906 25.224 133.906 30.6V54H123.826V31.968C123.826 28.8 123.034 26.376 121.45 24.696C119.866 22.968 117.706 22.104 114.97 22.104C112.186 22.104 109.978 22.968 108.346 24.696C106.762 26.376 105.97 28.8 105.97 31.968V54H95.8899V14.112H105.97V19.08C107.314 17.352 109.018 16.008 111.082 15.048C113.194 14.04 115.498 13.536 117.994 13.536ZM140.899 33.912C140.899 29.88 141.691 26.304 143.275 23.184C144.907 20.064 147.115 17.664 149.899 15.984C152.683 14.304 155.779 13.464 159.187 13.464C161.779 13.464 164.251 14.04 166.603 15.192C168.955 16.296 170.827 17.784 172.219 19.656V0.719999H182.443V54H172.219V48.096C170.971 50.064 169.219 51.648 166.963 52.848C164.707 54.048 162.091 54.648 159.115 54.648C155.755 54.648 152.683 53.784 149.899 52.056C147.115 50.328 144.907 47.904 143.275 44.784C141.691 41.616 140.899 37.992 140.899 33.912ZM172.291 34.056C172.291 31.608 171.811 29.52 170.851 27.792C169.891 26.016 168.595 24.672 166.963 23.76C165.331 22.8 163.579 22.32 161.707 22.32C159.835 22.32 158.107 22.776 156.523 23.688C154.939 24.6 153.643 25.944 152.635 27.72C151.675 29.448 151.195 31.512 151.195 33.912C151.195 36.312 151.675 38.424 152.635 40.248C153.643 42.024 154.939 43.392 156.523 44.352C158.155 45.312 159.883 45.792 161.707 45.792C163.579 45.792 165.331 45.336 166.963 44.424C168.595 43.464 169.891 42.12 170.851 40.392C171.811 38.616 172.291 36.504 172.291 34.056ZM210 54.648C206.16 54.648 202.704 53.808 199.632 52.128C196.56 50.4 194.136 47.976 192.36 44.856C190.632 41.736 189.768 38.136 189.768 34.056C189.768 29.976 190.656 26.376 192.432 23.256C194.256 20.136 196.728 17.736 199.848 16.056C202.968 14.328 206.448 13.464 210.288 13.464C214.128 13.464 217.608 14.328 220.728 16.056C223.848 17.736 226.296 20.136 228.072 23.256C229.896 26.376 230.808 29.976 230.808 34.056C230.808 38.136 229.872 41.736 228 44.856C226.176 47.976 223.68 50.4 220.512 52.128C217.392 53.808 213.888 54.648 210 54.648ZM210 45.864C211.824 45.864 213.528 45.432 215.112 44.568C216.744 43.656 218.04 42.312 219 40.536C219.96 38.76 220.44 36.6 220.44 34.056C220.44 30.264 219.432 27.36 217.416 25.344C215.448 23.28 213.024 22.248 210.144 22.248C207.264 22.248 204.84 23.28 202.872 25.344C200.952 27.36 199.992 30.264 199.992 34.056C199.992 37.848 200.928 40.776 202.8 42.84C204.72 44.856 207.12 45.864 210 45.864ZM287.738 13.536C292.634 13.536 296.57 15.048 299.546 18.072C302.57 21.048 304.082 25.224 304.082 30.6V54H294.002V31.968C294.002 28.848 293.21 26.472 291.626 24.84C290.042 23.16 287.882 22.32 285.146 22.32C282.41 22.32 280.226 23.16 278.594 24.84C277.01 26.472 276.218 28.848 276.218 31.968V54H266.138V31.968C266.138 28.848 265.346 26.472 263.762 24.84C262.178 23.16 260.018 22.32 257.282 22.32C254.498 22.32 252.29 23.16 250.658 24.84C249.074 26.472 248.282 28.848 248.282 31.968V54H238.202V14.112H248.282V18.936C249.578 17.256 251.234 15.936 253.25 14.976C255.314 14.016 257.57 13.536 260.018 13.536C263.138 13.536 265.922 14.208 268.37 15.552C270.818 16.848 272.714 18.72 274.058 21.168C275.354 18.864 277.226 17.016 279.674 15.624C282.17 14.232 284.858 13.536 287.738 13.536ZM351.088 62.856L343.456 53.712C341.344 54.24 339.184 54.504 336.976 54.504C332.272 54.504 327.952 53.4 324.016 51.192C320.08 48.984 316.96 45.936 314.656 42.048C312.352 38.112 311.2 33.672 311.2 28.728C311.2 23.832 312.352 19.44 314.656 15.552C316.96 11.616 320.08 8.544 324.016 6.336C327.952 4.128 332.272 3.024 336.976 3.024C341.728 3.024 346.048 4.128 349.936 6.336C353.872 8.544 356.968 11.616 359.224 15.552C361.528 19.44 362.68 23.832 362.68 28.728C362.68 33.192 361.72 37.272 359.8 40.968C357.928 44.616 355.36 47.592 352.096 49.896L363.616 62.856H351.088ZM321.568 28.728C321.568 32.088 322.216 35.04 323.512 37.584C324.808 40.128 326.608 42.096 328.912 43.488C331.264 44.832 333.952 45.504 336.976 45.504C340 45.504 342.664 44.832 344.968 43.488C347.272 42.096 349.072 40.128 350.368 37.584C351.664 35.04 352.312 32.088 352.312 28.728C352.312 25.368 351.664 22.44 350.368 19.944C349.072 17.4 347.272 15.456 344.968 14.112C342.664 12.768 340 12.096 336.976 12.096C333.952 12.096 331.264 12.768 328.912 14.112C326.608 15.456 324.808 17.4 323.512 19.944C322.216 22.44 321.568 25.368 321.568 28.728ZM407.976 14.112V54H397.824V48.96C396.528 50.688 394.824 52.056 392.712 53.064C390.648 54.024 388.392 54.504 385.944 54.504C382.824 54.504 380.064 53.856 377.664 52.56C375.264 51.216 373.368 49.272 371.976 46.728C370.632 44.136 369.96 41.064 369.96 37.512V14.112H380.04V36.072C380.04 39.24 380.832 41.688 382.416 43.416C384 45.096 386.16 45.936 388.896 45.936C391.68 45.936 393.864 45.096 395.448 43.416C397.032 41.688 397.824 39.24 397.824 36.072V14.112H407.976ZM435.633 54.648C431.793 54.648 428.337 53.808 425.265 52.128C422.193 50.4 419.769 47.976 417.993 44.856C416.265 41.736 415.401 38.136 415.401 34.056C415.401 29.976 416.289 26.376 418.065 23.256C419.889 20.136 422.361 17.736 425.481 16.056C428.601 14.328 432.081 13.464 435.921 13.464C439.761 13.464 443.241 14.328 446.361 16.056C449.481 17.736 451.929 20.136 453.705 23.256C455.529 26.376 456.441 29.976 456.441 34.056C456.441 38.136 455.505 41.736 453.633 44.856C451.809 47.976 449.313 50.4 446.145 52.128C443.025 53.808 439.521 54.648 435.633 54.648ZM435.633 45.864C437.457 45.864 439.161 45.432 440.745 44.568C442.377 43.656 443.673 42.312 444.633 40.536C445.593 38.76 446.073 36.6 446.073 34.056C446.073 30.264 445.065 27.36 443.049 25.344C441.081 23.28 438.657 22.248 435.777 22.248C432.897 22.248 430.473 23.28 428.505 25.344C426.585 27.36 425.625 30.264 425.625 34.056C425.625 37.848 426.561 40.776 428.433 42.84C430.353 44.856 432.753 45.864 435.633 45.864ZM475.571 22.392V41.688C475.571 43.032 475.883 44.016 476.507 44.64C477.179 45.216 478.283 45.504 479.819 45.504H484.499V54H478.163C469.667 54 465.419 49.872 465.419 41.616V22.392H460.667V14.112H465.419V4.248H475.571V14.112H484.499V22.392H475.571ZM528.829 33.192C528.829 34.632 528.733 35.928 528.541 37.08H499.381C499.621 39.96 500.629 42.216 502.405 43.848C504.181 45.48 506.365 46.296 508.957 46.296C512.701 46.296 515.365 44.688 516.949 41.472H527.821C526.669 45.312 524.461 48.48 521.197 50.976C517.933 53.424 513.925 54.648 509.173 54.648C505.333 54.648 501.877 53.808 498.805 52.128C495.781 50.4 493.405 47.976 491.677 44.856C489.997 41.736 489.157 38.136 489.157 34.056C489.157 29.928 489.997 26.304 491.677 23.184C493.357 20.064 495.709 17.664 498.733 15.984C501.757 14.304 505.237 13.464 509.173 13.464C512.965 13.464 516.349 14.28 519.325 15.912C522.349 17.544 524.677 19.872 526.309 22.896C527.989 25.872 528.829 29.304 528.829 33.192ZM518.389 30.312C518.341 27.72 517.405 25.656 515.581 24.12C513.757 22.536 511.525 21.744 508.885 21.744C506.389 21.744 504.277 22.512 502.549 24.048C500.869 25.536 499.837 27.624 499.453 30.312H518.389ZM551.451 54.648C548.187 54.648 545.259 54.072 542.667 52.92C540.075 51.72 538.011 50.112 536.475 48.096C534.987 46.08 534.171 43.848 534.027 41.4H544.179C544.371 42.936 545.115 44.208 546.411 45.216C547.755 46.224 549.411 46.728 551.379 46.728C553.299 46.728 554.787 46.344 555.843 45.576C556.947 44.808 557.499 43.824 557.499 42.624C557.499 41.328 556.827 40.368 555.483 39.744C554.187 39.072 552.099 38.352 549.219 37.584C546.243 36.864 543.795 36.12 541.875 35.352C540.003 34.584 538.371 33.408 536.979 31.824C535.635 30.24 534.963 28.104 534.963 25.416C534.963 23.208 535.587 21.192 536.835 19.368C538.131 17.544 539.955 16.104 542.307 15.048C544.707 13.992 547.515 13.464 550.731 13.464C555.483 13.464 559.275 14.664 562.107 17.064C564.939 19.416 566.499 22.608 566.787 26.64H557.139C556.995 25.056 556.323 23.808 555.123 22.896C553.971 21.936 552.411 21.456 550.443 21.456C548.619 21.456 547.203 21.792 546.195 22.464C545.235 23.136 544.755 24.072 544.755 25.272C544.755 26.616 545.427 27.648 546.771 28.368C548.115 29.04 550.203 29.736 553.035 30.456C555.915 31.176 558.291 31.92 560.163 32.688C562.035 33.456 563.643 34.656 564.987 36.288C566.379 37.872 567.099 39.984 567.147 42.624C567.147 44.928 566.499 46.992 565.203 48.816C563.955 50.64 562.131 52.08 559.731 53.136C557.379 54.144 554.619 54.648 551.451 54.648Z" fill="#FFD94F"/>
</svg>
